<?xml version="1.0" encoding="utf-8"?>
<!-- Generator: Adobe Illustrator 15.0.2, SVG Export Plug-In . SVG Version: 6.00 Build 0)  -->
<!DOCTYPE svg PUBLIC "-//W3C//DTD SVG 1.1//EN" "http://www.w3.org/Graphics/SVG/1.1/DTD/svg11.dtd">
<svg version="1.1" id="Layer_1" xmlns="http://www.w3.org/2000/svg" xmlns:xlink="http://www.w3.org/1999/xlink" x="0px" y="0px"
	 width="100px" height="50px" viewBox="0 0 100 50" enable-background="new 0 0 100 50" xml:space="preserve">
<g>
	<g>
		<path fill="#15A0FF" d="M40.105,17.833c0,0.95-0.766,1.713-1.713,1.713c-0.947,0-1.71-0.764-1.71-1.713
			c0-0.951,0.764-1.717,1.71-1.717C39.34,16.117,40.105,16.883,40.105,17.833z"/>
		<path fill="#15A0FF" d="M41.827,26.237c0,0.945-0.769,1.713-1.722,1.713c-0.947,0-1.713-0.768-1.713-1.713
			s0.767-1.711,1.713-1.711C41.059,24.526,41.827,25.292,41.827,26.237z"/>
		<path fill="#15A0FF" d="M38.192,34.04c0,0.944-0.771,1.716-1.718,1.716c-0.951,0-1.714-0.771-1.714-1.716
			c0-0.951,0.764-1.722,1.714-1.722C37.42,32.318,38.192,33.089,38.192,34.04z"/>
		<path fill="#15A0FF" d="M30.632,38.351c0,0.948-0.763,1.719-1.715,1.719c-0.946,0-1.715-0.771-1.715-1.719
			s0.769-1.714,1.715-1.714C29.869,36.637,30.632,37.402,30.632,38.351z"/>
		<path fill="#15A0FF" d="M22.404,37.608c0,0.944-0.767,1.715-1.718,1.715c-0.945,0-1.714-0.771-1.714-1.715
			c0-0.955,0.769-1.722,1.714-1.722C21.637,35.887,22.404,36.653,22.404,37.608z"/>
		<path fill="#15A0FF" d="M15.958,31.755c0,0.956-0.77,1.722-1.72,1.722c-0.945,0-1.712-0.766-1.712-1.722
			c0-0.944,0.768-1.708,1.712-1.708C15.188,30.047,15.958,30.811,15.958,31.755z"/>
		<path fill="#15A0FF" d="M14.238,23.397c0,0.943-0.771,1.712-1.712,1.712c-0.95,0-1.719-0.77-1.719-1.712
			c0-0.956,0.769-1.722,1.719-1.722C13.467,21.675,14.238,22.441,14.238,23.397z"/>
		<path fill="#15A0FF" d="M17.518,15.52c0,0.943-0.765,1.708-1.717,1.708c-0.947,0-1.718-0.766-1.718-1.708
			c0-0.947,0.771-1.721,1.718-1.721C16.753,13.799,17.518,14.573,17.518,15.52z"/>
		<path fill="#15A0FF" d="M33.764,12.083c0,0.95-0.766,1.716-1.712,1.716c-0.953,0-1.717-0.766-1.717-1.716
			c0-0.945,0.765-1.711,1.717-1.711C32.998,10.372,33.764,11.138,33.764,12.083z"/>
		<path fill="#15A0FF" d="M24.893,11.439c0,0.956-0.768,1.722-1.712,1.722c-0.949,0-1.718-0.766-1.718-1.722
			c0-0.943,0.769-1.708,1.718-1.708C24.125,9.731,24.893,10.497,24.893,11.439z"/>
		<path fill="#0DCE16" d="M26.528,17.495c0,0.604-0.488,1.099-1.093,1.099c-0.604,0-1.093-0.494-1.093-1.099
			c0-0.602,0.489-1.094,1.093-1.094C26.04,16.401,26.528,16.893,26.528,17.495z"/>
		<path fill="#0DCE16" d="M30.907,18.594c0,0.597-0.486,1.089-1.089,1.089c-0.604,0-1.095-0.492-1.095-1.089
			c0-0.609,0.49-1.099,1.095-1.099C30.42,17.495,30.907,17.984,30.907,18.594z"/>
		<path fill="#0DCE16" d="M33.764,21.675c0,0.603-0.483,1.092-1.09,1.092c-0.606,0-1.091-0.489-1.091-1.092
			c0-0.606,0.485-1.091,1.091-1.091C33.281,20.584,33.764,21.069,33.764,21.675z"/>
		<path fill="#0DCE16" d="M34.304,26.237c0,0.602-0.492,1.092-1.095,1.092c-0.606,0-1.096-0.49-1.096-1.092
			c0-0.606,0.49-1.094,1.096-1.094C33.812,25.144,34.304,25.631,34.304,26.237z"/>
		<path fill="#0DCE16" d="M32.113,30.047c0,0.597-0.485,1.091-1.095,1.091c-0.598,0-1.09-0.494-1.09-1.091
			c0-0.61,0.492-1.091,1.09-1.091C31.628,28.956,32.113,29.437,32.113,30.047z"/>
		<path fill="#0DCE16" d="M27.944,31.934c0,0.595-0.487,1.092-1.091,1.092c-0.601,0-1.092-0.497-1.092-1.092
			c0-0.609,0.491-1.094,1.092-1.094C27.457,30.84,27.944,31.324,27.944,31.934z"/>
		<path fill="#0DCE16" d="M23.648,30.84c0,0.6-0.491,1.094-1.095,1.094c-0.602,0-1.09-0.494-1.09-1.094
			c0-0.607,0.488-1.097,1.09-1.097C23.157,29.743,23.648,30.232,23.648,30.84z"/>
		<path fill="#0DCE16" d="M20.583,27.859c0,0.602-0.488,1.097-1.095,1.097c-0.601,0-1.09-0.495-1.09-1.097
			c0-0.605,0.489-1.097,1.09-1.097C20.095,26.763,20.583,27.254,20.583,27.859z"/>
		<path fill="#0DCE16" d="M20.295,23.397c0,0.596-0.484,1.088-1.092,1.088c-0.605,0-1.09-0.492-1.09-1.088
			c0-0.61,0.485-1.094,1.09-1.094C19.811,22.303,20.295,22.787,20.295,23.397z"/>
		<path fill="#0DCE16" d="M22.553,19.327c0,0.609-0.485,1.096-1.09,1.096c-0.605,0-1.093-0.487-1.093-1.096
			c0-0.6,0.488-1.092,1.093-1.092C22.067,18.235,22.553,18.727,22.553,19.327z"/>
		<path fill="#FEEB00" d="M26.834,21.127c0,0.382-0.311,0.694-0.702,0.694c-0.388,0-0.698-0.312-0.698-0.694
			c0-0.389,0.31-0.704,0.698-0.704C26.523,20.423,26.834,20.738,26.834,21.127z"/>
		<path fill="#FEEB00" d="M29.259,21.821c0,0.39-0.312,0.708-0.701,0.708c-0.388,0-0.697-0.318-0.697-0.708
			c0-0.387,0.309-0.694,0.697-0.694C28.946,21.127,29.259,21.435,29.259,21.821z"/>
		<circle fill="#FEEB00" cx="29.929" cy="23.783" r="0.702"/>
		<path fill="#FEEB00" d="M30.519,26.237c0,0.387-0.317,0.702-0.702,0.702c-0.392,0-0.705-0.315-0.705-0.702
			s0.313-0.702,0.705-0.702C30.202,25.535,30.519,25.851,30.519,26.237z"/>
		<path fill="#FEEB00" d="M24.347,22.116c0,0.387-0.313,0.701-0.699,0.701c-0.389,0-0.706-0.314-0.706-0.701
			c0-0.39,0.316-0.705,0.706-0.705C24.034,21.412,24.347,21.726,24.347,22.116z"/>
		<circle fill="#FEEB00" cx="22.553" cy="23.973" r="0.699"/>
		<path fill="#FEEB00" d="M23.45,26.237c0,0.387-0.316,0.702-0.7,0.702c-0.389,0-0.703-0.315-0.703-0.702s0.314-0.702,0.703-0.702
			C23.134,25.535,23.45,25.851,23.45,26.237z"/>
		<path fill="#FEEB00" d="M24.836,27.859c0,0.386-0.317,0.704-0.699,0.704c-0.39,0-0.704-0.318-0.704-0.704
			c0-0.385,0.314-0.699,0.704-0.699C24.519,27.16,24.836,27.475,24.836,27.859z"/>
		<path fill="#FEEB00" d="M27.228,28.796c0,0.388-0.312,0.702-0.7,0.702c-0.39,0-0.701-0.314-0.701-0.702
			c0-0.384,0.312-0.691,0.701-0.691C26.916,28.104,27.228,28.412,27.228,28.796z"/>
		<circle fill="#FEEB00" cx="28.56" cy="28" r="0.699"/>
		<path fill="#FFA015" d="M28.504,24.727c0,1.209-0.978,2.182-2.186,2.182c-1.207,0-2.182-0.973-2.182-2.182
			c0-1.207,0.975-2.18,2.182-2.18C27.526,22.546,28.504,23.52,28.504,24.727z"/>
		<path fill="#FF0000" d="M27.312,24.596c0,0.553-0.443,0.996-0.993,0.996c-0.553,0-0.991-0.443-0.991-0.996
			c0-0.547,0.438-0.991,0.991-0.991C26.869,23.604,27.312,24.049,27.312,24.596z"/>
		<path fill="#8518B7" d="M23.574,4.828c0,1.658-1.336,3-2.992,3c-1.653,0-2.995-1.342-2.995-3c0-1.645,1.342-2.989,2.995-2.989
			C22.238,1.839,23.574,3.184,23.574,4.828z"/>
		<path fill="#8518B7" d="M36.202,5.387c0,1.655-1.337,2.999-2.993,2.999c-1.656,0-2.99-1.344-2.99-2.999
			c0-1.647,1.334-2.99,2.99-2.99C34.864,2.397,36.202,3.74,36.202,5.387z"/>
		<path fill="#8518B7" d="M46.091,12.718c0,1.657-1.334,3.002-2.993,3.002c-1.65,0-2.993-1.345-2.993-3.002
			c0-1.645,1.342-2.987,2.993-2.987C44.756,9.731,46.091,11.073,46.091,12.718z"/>
		<path fill="#8518B7" d="M49.789,25.431c0,1.654-1.344,2.997-2.991,2.997c-1.656,0-2.995-1.343-2.995-2.997
			c0-1.65,1.338-2.992,2.995-2.992C48.445,22.438,49.789,23.781,49.789,25.431z"/>
		<path fill="#8518B7" d="M45.402,37.601c0,1.656-1.34,2.994-2.998,2.994c-1.65,0-2.993-1.338-2.993-2.994
			c0-1.649,1.342-2.987,2.993-2.987C44.062,34.613,45.402,35.951,45.402,37.601z"/>
		<path fill="#8518B7" d="M35.67,44.203c0,1.652-1.342,2.998-2.992,2.998c-1.658,0-2.998-1.346-2.998-2.998
			c0-1.654,1.34-2.992,2.998-2.992C34.329,41.211,35.67,42.549,35.67,44.203z"/>
		<path fill="#8518B7" d="M22.195,44.198c0,1.657-1.337,3-2.992,3c-1.654,0-2.993-1.343-2.993-3c0-1.652,1.338-2.989,2.993-2.989
			C20.858,41.209,22.195,42.546,22.195,44.198z"/>
		<path fill="#8518B7" d="M12.522,36.637c0,1.654-1.337,2.991-2.992,2.991c-1.648,0-2.992-1.337-2.992-2.991
			c0-1.652,1.344-2.994,2.992-2.994C11.186,33.643,12.522,34.984,12.522,36.637z"/>
		<path fill="#8518B7" d="M8.598,24.798c0,1.657-1.341,2.997-2.994,2.997c-1.646,0-2.991-1.34-2.991-2.997
			c0-1.652,1.344-2.989,2.991-2.989C7.256,21.809,8.598,23.146,8.598,24.798z"/>
		<path fill="#8518B7" d="M12.522,12.72c0,1.657-1.337,2.997-2.992,2.997c-1.648,0-2.992-1.34-2.992-2.997
			c0-1.649,1.344-2.989,2.992-2.989C11.186,9.731,12.522,11.071,12.522,12.72z"/>
	</g>
	<rect x="54.636" y="7.888" fill="none" width="41.233" height="25.925"/>
	<text transform="matrix(1 0 0 1 54.6357 29.3711)"><tspan x="0" y="0" fill="#FFFFFF" font-family="'Arial'" font-size="30.0046">ES</tspan><tspan x="40.025" y="0" fill="#FF0D0D" font-family="'Arial'" font-size="30.0046"> </tspan></text>
	<rect x="56.705" y="33.812" fill="none" width="39.295" height="13.39"/>
	<text transform="matrix(1 0 0 1 56.7051 41.8682)"><tspan x="0" y="0" fill="#FFFFFF" font-family="'Arial'" font-size="7.5011">EXPLORE</tspan><tspan x="35.436" y="0" fill="#FF0D0D" font-family="'Arial'" font-size="11.2517"> </tspan></text>
</g>
</svg>
